<svg xmlns="http://www.w3.org/2000/svg" viewBox="0 0 64 64" role="img" aria-label="Campus Eats icon">
  <defs>
    <linearGradient id="brand" x1="0" y1="0" x2="1" y2="1">
      <stop offset="0%" stop-color="#ff4d4d" />
      <stop offset="60%" stop-color="#ff6b35" />
      <stop offset="100%" stop-color="#ffae00" />
    </linearGradient>
  </defs>
  <rect width="64" height="64" rx="14" fill="#0f172a" />
  <path d="M14 40c3 6 10 12 18 12s15-3 18-12l4-12c1-3-1-6-4-6H14c-3 0-5 3-4 6l4 12z" fill="url(#brand)" />
  <path d="M20 22c0-5 4-10 12-10s12 5 12 10v4H20v-4z" fill="#0f172a" />
  <path d="M23 35h10c3 0 5 2 5 5s-2 5-5 5H27" stroke="#fff" stroke-width="4" stroke-linecap="round" stroke-linejoin="round" />
  <path d="M41 30h-9c-3 0-5-2-5-5" stroke="#17c964" stroke-width="4" stroke-linecap="round" />
</svg>
